# xmcd CD database file
#
# Track frame offsets:
#	150
#	11313
#	23910
#	36740
#	47885
#	59793
#	74395
#	84473
#	96868
#	111323
#	125173
#	136520
#	146488
#	159838
#
# Disc length: 2284 seconds
#
# Revision: 2
# Processed by: cddbd v1.5.2PL0 Copyright (c) Steve Scherf et al.
# Submitted via: CDex 1.70beta2
#
DISCID=c508ea0e
DTITLE=Various Artist - The Best Of Country and Western
DYEAR=1900
DGENRE=Country
TTITLE0=Matchbox/While I'm Away
TTITLE1=Dolly Parton/Little Blossom
TTITLE2=Guy Mitchell/I'm Calling You
TTITLE3=Johnny Cash/Oh, Lonesome Me
TTITLE4=Dave Travis/Loving Me Dry
TTITLE5=Rex Allan J.R./A Good Woman's Love
TTITLE6=Don Williams/Take My Hand For A While
TTITLE7=Ray Price/Rain And Tears
TTITLE8=Willie Nelson/Will You Remember Mine
TTITLE9=Tennessee/Kentucky Sundown
TTITLE10=Johnny Roman/Treat Me Like
TTITLE11=Buddy Knox/Devil Woman
TTITLE12=Stu Stevens/Love Me Tender
TTITLE13=Frankie Laine/Mule Train
EXTD=
EXTT0=
EXTT1=
EXTT2=
EXTT3=
EXTT4=
EXTT5=
EXTT6=
EXTT7=
EXTT8=
EXTT9=
EXTT10=
EXTT11=
EXTT12=
EXTT13=
PLAYORDER=
